<svg xmlns="http://www.w3.org/2000/svg" version="1.1" xmlns:xlink="http://www.w3.org/1999/xlink" xmlns:svgjs="http://svgjs.com/svgjs" width="1440" height="560" preserveAspectRatio="none" viewBox="0 0 1440 560"><g mask="url(&quot;#SvgjsMask1041&quot;)" fill="none"><path d="M770.85 134.54a12.47 12.47 0 1 0 13.35-21.07z" stroke="rgba(3, 129, 255, 0.51)"></path><path d="M1388.97 436.32 a33.05 33.05 0 1 0 66.1 0 a33.05 33.05 0 1 0 -66.1 0z" fill="rgba(3, 129, 255, 0.51)"></path><path d="M893.57 409.08a7.65 7.65 0 1 0-14.89 3.53z" stroke="rgba(255, 213, 3, 0.52)"></path><path d="M578.08 66.77L615.46 66.77L615.46 104.15L578.08 104.15z" stroke="rgba(3, 129, 255, 0.51)"></path><path d="M292.94 441.46L335.24 441.46L335.24 477.9L292.94 477.9z" fill="rgba(3, 129, 255, 0.51)"></path><path d="M1032.22 129.14L1038.1 129.14L1038.1 152.17L1032.22 152.17z" fill="rgba(3, 129, 255, 0.51)"></path><path d="M276.11 391.59L293.52 391.59L293.52 393.51L276.11 393.51z" fill="rgba(3, 129, 255, 0.51)"></path><path d="M1069.96 59.67L1071.81 59.67L1071.81 80.79L1069.96 80.79z" fill="rgba(255, 213, 3, 0.52)"></path><path d="M743.13 327.92L779.24 327.92L779.24 343.41L743.13 343.41z" fill="rgba(255, 213, 3, 0.52)"></path><path d="M894.54 557.36 a47.58 47.58 0 1 0 95.16 0 a47.58 47.58 0 1 0 -95.16 0z" fill="rgba(3, 129, 255, 0.51)"></path><path d="M1074.69 33.93 a20.46 20.46 0 1 0 40.92 0 a20.46 20.46 0 1 0 -40.92 0z" stroke="rgba(255, 213, 3, 0.52)"></path><path d="M4.99 352.62 a13.04 13.04 0 1 0 26.08 0 a13.04 13.04 0 1 0 -26.08 0z" stroke="rgba(3, 129, 255, 0.51)"></path><path d="M863.78 417.96a47.06 47.06 0 1 0-27.92-89.89z" stroke="rgba(3, 129, 255, 0.51)"></path><path d="M451.5 1.97 a13.45 13.45 0 1 0 26.9 0 a13.45 13.45 0 1 0 -26.9 0z" fill="rgba(3, 129, 255, 0.51)"></path><path d="M1369.41 187.13 a55.73 55.73 0 1 0 111.46 0 a55.73 55.73 0 1 0 -111.46 0z" stroke="rgba(255, 213, 3, 0.52)"></path><path d="M35.45 224.56L80.07 224.56L80.07 280.02L35.45 280.02z" fill="rgba(3, 129, 255, 0.51)"></path><path d="M324.14 399.85a48.25 48.25 0 1 0-71 65.35z" fill="rgba(3, 129, 255, 0.51)"></path><path d="M427.77 393.96a30.71 30.71 0 1 0-4.87-61.23z" stroke="rgba(255, 213, 3, 0.52)"></path><path d="M1251.37 344.16 a3.32 3.32 0 1 0 6.64 0 a3.32 3.32 0 1 0 -6.64 0z" stroke="rgba(3, 129, 255, 0.51)"></path><path d="M1023.01 338.36 a53.46 53.46 0 1 0 106.92 0 a53.46 53.46 0 1 0 -106.92 0z" stroke="rgba(3, 129, 255, 0.51)"></path><path d="M1088.44 167.41 a3.55 3.55 0 1 0 7.1 0 a3.55 3.55 0 1 0 -7.1 0z" fill="rgba(255, 213, 3, 0.52)"></path><path d="M65.71 531.79L94.26 531.79L94.26 558.77L65.71 558.77z" fill="rgba(3, 129, 255, 0.51)"></path><path d="M470.34 290.27L507.28 290.27L507.28 327.21L470.34 327.21z" stroke="rgba(255, 213, 3, 0.52)"></path><path d="M407.31 344.81 a30.18 30.18 0 1 0 60.36 0 a30.18 30.18 0 1 0 -60.36 0z" fill="rgba(3, 129, 255, 0.51)"></path><path d="M335.82 215.64a24.79 24.79 0 1 0 6.46-49.16z" stroke="rgba(255, 213, 3, 0.52)"></path><path d="M210.16 231.77a15.15 15.15 0 1 0-24.09 18.37z" stroke="rgba(3, 129, 255, 0.51)"></path><path d="M255.69 241.23L260.14 241.23L260.14 277.04L255.69 277.04z" stroke="rgba(255, 213, 3, 0.52)"></path><path d="M730.39 15.03 a5.37 5.37 0 1 0 10.74 0 a5.37 5.37 0 1 0 -10.74 0z" fill="rgba(3, 129, 255, 0.51)"></path><path d="M1228.54 336.97 a6.94 6.94 0 1 0 13.88 0 a6.94 6.94 0 1 0 -13.88 0z" stroke="rgba(255, 213, 3, 0.52)"></path><path d="M1436.06 173.89L1453.97 173.89L1453.97 191.8L1436.06 191.8z" fill="rgba(3, 129, 255, 0.51)"></path><path d="M246.41 527.04L287.91 527.04L287.91 546.45L246.41 546.45z" stroke="rgba(3, 129, 255, 0.51)"></path><path d="M1000.14 396.41a33.59 33.59 0 1 0 66.88 6.38z" fill="rgba(3, 129, 255, 0.51)"></path><path d="M1152.85 290.69L1171.15 290.69L1171.15 311.19L1152.85 311.19z" stroke="rgba(3, 129, 255, 0.51)"></path></g><defs><mask id="SvgjsMask1041"><rect width="1440" height="560" fill="#ffffff"></rect></mask></defs></svg>